<svg width="32" height="32" viewBox="0 0 32 32" fill="none" xmlns="http://www.w3.org/2000/svg">
  <rect width="32" height="32" rx="8" fill="url(#paint0_linear)" />
  <!-- Using paths for better compatibility -->
  <!-- M -->
  <path d="M6 10H8V16H10V13H12V16H14V10H16V18H12V16H10V18H6V10Z" fill="white"/>
  <!-- B -->
  <path d="M17 10H23C24.1046 10 25 10.8954 25 12V12.5C25 13.3284 24.3284 14 23.5 14C24.3284 14 25 14.6716 25 15.5V16C25 17.1046 24.1046 18 23 18H17V10ZM19 13V12H23V13H19ZM19 16V15H23V16H19Z" fill="white"/>
  <!-- A -->
  <path d="M6 20H26V22H22V24H20V22H12V24H10V22H6V20Z" fill="white"/>
  <defs>
    <linearGradient id="paint0_linear" x1="0" y1="0" x2="32" y2="32" gradientUnits="userSpaceOnUse">
      <stop stop-color="#4DCFD9" />
      <stop offset="1" stop-color="#D24C8E" />
    </linearGradient>
  </defs>
</svg>
