<svg width="32" height="32" viewBox="0 0 32 32" fill="none" xmlns="http://www.w3.org/2000/svg">
  <rect width="32" height="32" rx="8" fill="url(#paint0_linear)" />
  <!-- MBA Letters -->
  <!-- M -->
  <path d="M6 8H8V16L10 12L12 16V8H14V20H12L10 16L8 20H6V8Z" fill="white"/>
  <!-- B -->
  <path d="M15 8H21C22.1 8 23 8.9 23 10V11C23 11.7 22.6 12.4 22 12.7C22.6 13 23 13.7 23 14.5V15.5C23 16.9 21.9 18 20.5 18H15V8ZM17 12V10H21V12H17ZM17 16V14H20.5C20.8 14 21 14.2 21 14.5V15.5C21 15.8 20.8 16 20.5 16H17Z" fill="white"/>
  <!-- A -->
  <path d="M24 8H26L29 18H27L26.2 16H23.8L23 18H21L24 8ZM24.4 14H25.6L25 12L24.4 14Z" fill="white"/>
  <defs>
    <linearGradient id="paint0_linear" x1="0" y1="0" x2="32" y2="32" gradientUnits="userSpaceOnUse">
      <stop stop-color="#4DCFD9" />
      <stop offset="1" stop-color="#D24C8E" />
    </linearGradient>
  </defs>
</svg>
